<svg fill="none" height="512" viewBox="0 0 20 20" width="512" xmlns="http://www.w3.org/2000/svg"><path d="m3 3h14c.2652 0 .5196.10536.7071.29289.1875.18754.2929.44189.2929.70711s-.1054.51957-.2929.70711c-.1875.18753-.4419.29289-.7071.29289h-14c-.26522 0-.51957-.10536-.70711-.29289-.18753-.18754-.29289-.44189-.29289-.70711s.10536-.51957.29289-.70711c.18754-.18753.44189-.29289.70711-.29289zm0 4h10c.2652 0 .5196.10536.7071.29289.1875.18754.2929.44189.2929.70711s-.1054.51957-.2929.70711c-.1875.18753-.4419.29289-.7071.29289h-10c-.26522 0-.51957-.10536-.70711-.29289-.18753-.18754-.29289-.44189-.29289-.70711s.10536-.51957.29289-.70711c.18754-.18753.44189-.29289.70711-.29289zm0 4h14c.2652 0 .5196.1054.7071.2929s.2929.4419.2929.7071-.1054.5196-.2929.7071-.4419.2929-.7071.2929h-14c-.26522 0-.51957-.1054-.70711-.2929-.18753-.1875-.29289-.4419-.29289-.7071s.10536-.5196.29289-.7071c.18754-.1875.44189-.2929.70711-.2929zm0 4h10c.2652 0 .5196.1054.7071.2929s.2929.4419.2929.7071-.1054.5196-.2929.7071-.4419.2929-.7071.2929h-10c-.26522 0-.51957-.1054-.70711-.2929-.18753-.1875-.29289-.4419-.29289-.7071s.10536-.5196.29289-.7071c.18754-.1875.44189-.2929.70711-.2929z" fill="rgb(0,0,0)"/></svg>