<?xml version="1.0" encoding="utf-8"?>
<!-- Generator: Adobe Illustrator 26.4.1, SVG Export Plug-In . SVG Version: 6.00 Build 0)  -->
<svg version="1.1" id="Capa_1" xmlns="http://www.w3.org/2000/svg" xmlns:xlink="http://www.w3.org/1999/xlink" x="0px" y="0px"
	 viewBox="0 0 584.92 228.66" style="enable-background:new 0 0 584.92 228.66;" xml:space="preserve">
<style type="text/css">
	.st0{fill:#60269E;}
	.st1{fill:#FFFFFF;}
</style>
<g>
	<path class="st0" d="M158.71,115.46c-0.13-2.63,1.22-4.33,3.25-5.31c9.76-4.73,19.56-9.39,29.39-13.97
		c4.18-1.94,8.83,1.14,8.47,5.51c-0.19,2.33-1.35,4.23-3.53,5.28c-6.16,2.98-12.32,5.95-18.5,8.87c-3.64,1.72-7.29,3.45-11.02,4.99
		C162.6,122.56,158.69,119.8,158.71,115.46"/>
	<path class="st0" d="M187.2,140.6c-5.21,0-10.42,0.07-15.63-0.02c-3.98-0.07-6.55-2.72-6.33-6.31c0.19-3,2.57-5.39,5.57-5.42
		c6.15-0.05,12.31,0,18.46-0.05c4.63-0.04,9.27-0.17,13.9-0.27c2.19-0.04,3.97,0.77,5.27,2.53c2.48,3.33,0.84,8.08-3.18,9.11
		c-1.09,0.28-2.26,0.38-3.39,0.39c-4.89,0.04-9.78,0.02-14.68,0.02V140.6z"/>
	<path class="st0" d="M158.73,154.55c-0.02-5.1,4.19-7.96,8.34-6.09c5.55,2.5,11.01,5.21,16.52,7.79c3.67,1.72,7.31,3.54,11.08,5.02
		c2.5,0.99,4.09,2.64,5.1,4.99c1.24,2.88-1.31,6.24-4.37,6.8c-5.09,0.93-8.47-2.57-12.52-4.22c-5.39-2.2-10.61-4.84-15.88-7.33
		c-1.95-0.92-3.9-1.84-5.77-2.91C159.48,157.61,158.79,155.92,158.73,154.55"/>
	<path class="st0" d="M292.55,150.96c0,3.34-0.76,6.31-2.27,8.92c-1.52,2.61-3.64,4.83-6.36,6.65c-2.73,1.82-6.03,3.22-9.89,4.21
		c-3.86,0.99-8.15,1.48-12.84,1.48h-22.85v-75.7h25.92c3.86,0,7.37,0.44,10.51,1.31c3.14,0.87,5.81,2.09,8.01,3.64
		c2.2,1.56,3.9,3.43,5.12,5.63c1.21,2.2,1.82,4.62,1.82,7.28c0,4.77-1.38,8.64-4.15,11.59c-2.76,2.96-6.53,5.19-11.31,6.71
		c5.46,0.83,9.87,2.78,13.24,5.85C290.87,141.59,292.55,145.73,292.55,150.96 M260.69,127.43c3.92,0,7.12-0.87,9.61-2.61
		c2.49-1.74,3.73-4.21,3.73-7.39c0-3.03-1.05-5.27-3.16-6.71c-2.11-1.44-4.97-2.16-8.59-2.16h-8.36v18.87H260.69z M276.87,149.82
		c0-3.41-1.43-5.98-4.3-7.73c-2.87-1.74-6.56-2.61-11.08-2.61h-7.58v20.69h8.37c4.98,0,8.65-0.95,11.03-2.84
		C275.68,155.43,276.87,152.93,276.87,149.82"/>
	<path class="st0" d="M318.69,156.19c0,1.75,0.36,3.05,1.08,3.92c0.72,0.87,1.95,1.31,3.69,1.31c0.68,0,1.4-0.04,2.16-0.11
		c0.76-0.07,1.48-0.19,2.16-0.34l0.57,10.91c-1.29,0.38-2.88,0.7-4.77,0.97c-1.9,0.27-3.75,0.4-5.57,0.4c-2.8,0-5.15-0.44-7.05-1.31
		c-1.9-0.87-3.43-2.04-4.6-3.52c-1.18-1.48-2.01-3.14-2.5-5c-0.49-1.86-0.74-3.77-0.74-5.74v-65.7h15.57V156.19z"/>
	<path class="st0" d="M336.43,100.72c0-2.5,0.83-4.62,2.5-6.36c1.67-1.74,3.83-2.61,6.48-2.61c2.65,0,4.83,0.87,6.53,2.61
		c1.7,1.74,2.56,3.87,2.56,6.36c0,2.43-0.85,4.53-2.56,6.31c-1.7,1.78-3.88,2.67-6.53,2.67c-2.65,0-4.81-0.89-6.48-2.67
		C337.26,105.25,336.43,103.15,336.43,100.72 M337.68,116.86h15.57v55.35h-15.57V116.86z"/>
	<path class="st0" d="M368.02,116.86h14.89v7.05c1.82-2.5,4.09-4.49,6.82-5.97c2.73-1.48,6.06-2.22,10-2.22
		c3.33,0,6.37,0.68,9.09,2.05c2.73,1.36,5.06,3.28,6.99,5.74c1.93,2.47,3.43,5.42,4.49,8.87c1.06,3.45,1.59,7.3,1.59,11.54
		c0,4.77-0.76,9-2.27,12.67c-1.52,3.68-3.56,6.76-6.14,9.26c-2.58,2.5-5.59,4.38-9.04,5.63c-3.45,1.25-7.14,1.87-11.08,1.87
		c-2.05,0-3.87-0.13-5.46-0.4c-1.59-0.27-3.03-0.59-4.32-0.97v23.64h-15.57V116.86z M394.51,127.89c-2.5,0-4.68,0.53-6.54,1.59
		c-1.86,1.06-3.32,2.24-4.38,3.52v27.39c0.98,0.38,2.12,0.66,3.41,0.85c1.29,0.19,2.65,0.28,4.09,0.28c5.3,0,9.17-1.63,11.59-4.89
		c2.42-3.26,3.64-7.46,3.64-12.62c0-4.62-0.97-8.47-2.9-11.54C401.5,129.42,398.52,127.89,394.51,127.89"/>
	<path class="st0" d="M487.71,150.96c0,3.34-0.76,6.31-2.27,8.92c-1.52,2.61-3.64,4.83-6.36,6.65c-2.73,1.82-6.03,3.22-9.89,4.21
		c-3.86,0.99-8.15,1.48-12.84,1.48h-22.85v-75.7h25.92c3.86,0,7.37,0.44,10.51,1.31c3.14,0.87,5.81,2.09,8.01,3.64
		c2.2,1.56,3.9,3.43,5.12,5.63c1.21,2.2,1.82,4.62,1.82,7.28c0,4.77-1.38,8.64-4.15,11.59c-2.76,2.96-6.53,5.19-11.31,6.71
		c5.46,0.83,9.87,2.78,13.24,5.85C486.02,141.59,487.71,145.73,487.71,150.96 M455.85,127.43c3.92,0,7.12-0.87,9.61-2.61
		c2.49-1.74,3.73-4.21,3.73-7.39c0-3.03-1.05-5.27-3.16-6.71c-2.11-1.44-4.97-2.16-8.59-2.16h-8.36v18.87H455.85z M472.03,149.82
		c0-3.41-1.43-5.98-4.3-7.73c-2.87-1.74-6.56-2.61-11.08-2.61h-7.58v20.69h8.37c4.98,0,8.65-0.95,11.03-2.84
		C470.84,155.43,472.03,152.93,472.03,149.82"/>
	<path class="st0" d="M513.85,156.19c0,1.75,0.36,3.05,1.08,3.92c0.72,0.87,1.95,1.31,3.69,1.31c0.68,0,1.4-0.04,2.16-0.11
		c0.76-0.07,1.48-0.19,2.16-0.34l0.57,10.91c-1.29,0.38-2.88,0.7-4.77,0.97c-1.9,0.27-3.75,0.4-5.57,0.4c-2.8,0-5.15-0.44-7.05-1.31
		c-1.9-0.87-3.43-2.04-4.6-3.52c-1.18-1.48-2.01-3.14-2.5-5c-0.49-1.86-0.74-3.77-0.74-5.74v-65.7h15.57V156.19z"/>
	<path class="st0" d="M563.3,166.31c-2.05,1.97-4.51,3.64-7.39,5c-2.88,1.36-6.21,2.04-10,2.04c-2.43,0-4.62-0.4-6.59-1.19
		c-1.97-0.8-3.64-1.89-5-3.3c-1.37-1.4-2.43-3.05-3.18-4.95c-0.76-1.89-1.14-3.98-1.14-6.25c0-5.08,1.7-8.94,5.11-11.6
		c3.41-2.65,8.07-4.16,13.98-4.54c2.27-0.15,4.62-0.27,7.05-0.34c2.42-0.07,4.62-0.15,6.59-0.23v-1.93c0-3.56-0.87-6.27-2.61-8.13
		c-1.75-1.86-4.47-2.78-8.18-2.78c-2.88,0-5.61,0.34-8.18,1.02c-2.58,0.68-4.85,1.55-6.82,2.61l-3.07-10.91
		c2.88-1.67,6.06-2.94,9.55-3.81c3.49-0.87,7.24-1.31,11.25-1.31c7.35,0,13.13,2.01,17.33,6.02c4.21,4.02,6.31,9.97,6.31,17.85
		v32.62h-15V166.31z M551.59,162.78c2.2,0,4.24-0.38,6.14-1.14c1.9-0.76,3.56-1.71,5-2.84v-8.75c-1.59,0.15-3.3,0.3-5.11,0.45
		c-1.82,0.15-3.49,0.34-5,0.57c-2.27,0.38-4.09,1-5.46,1.87c-1.36,0.87-2.05,2.33-2.05,4.38c0,1.82,0.59,3.18,1.76,4.09
		C548.05,162.33,549.62,162.78,551.59,162.78"/>
	<path class="st0" d="M151.49,128.84c0,18.41-6.34,33.95-19.04,46.62c-12.81,12.53-28.36,18.78-46.6,18.78H41.21
		c-5.05,0-9.9,2.04-13.43,5.69L0,228.55V0h40.58c18.11,0.15,33.64,6.73,46.64,19.25c12.68,12.53,19.03,28.01,19.03,46.39
		c0,0.32,0,0.62-0.02,0.92c9.69,3.05,18.43,8.36,26.23,15.9C145.15,94.98,151.49,110.45,151.49,128.84"/>
	<path class="st1" d="M126.73,125.83v0.49c0,24.28-19.68,43.96-43.96,43.96c-24.26,0-43.94-19.68-43.94-43.96v-0.49h0.06v-0.09h87.8
		v0.09H126.73z"/>
	<path class="st1" d="M76.61,69.68c0,6.01-4.86,10.85-10.85,10.85c-5.99,0-10.85-4.84-10.85-10.85c0-5.99,4.86-10.83,10.85-10.83
		C71.74,58.86,76.61,63.7,76.61,69.68"/>
</g>
</svg>
