<?xml version="1.0" encoding="utf-8"?>
<!-- Generator: Adobe Illustrator 26.4.1, SVG Export Plug-In . SVG Version: 6.00 Build 0)  -->
<svg version="1.1" id="Capa_1" xmlns="http://www.w3.org/2000/svg" xmlns:xlink="http://www.w3.org/1999/xlink" x="0px" y="0px"
	 viewBox="0 0 802.38 253.7" style="enable-background:new 0 0 802.38 253.7;" xml:space="preserve">
<style type="text/css">
	.st0{fill:#60269E;}
</style>
<g>
	<path class="st0" d="M130.7,143.38c0,7.79-1.77,14.74-5.31,20.85c-3.55,6.1-8.5,11.29-14.87,15.54
		c-6.37,4.25-14.08,7.53-23.11,9.83c-9.03,2.3-19.03,3.45-30.01,3.45H4V16.15h60.56c9.03,0,17.22,1.02,24.57,3.05
		c7.34,2.04,13.58,4.87,18.72,8.5c5.13,3.64,9.12,8.01,11.96,13.15c2.83,5.14,4.24,10.8,4.24,17c0,11.16-3.23,20.18-9.7,27.09
		c-6.46,6.91-15.27,12.13-26.42,15.67c12.75,1.95,23.06,6.5,30.94,13.68C126.75,121.47,130.7,131.16,130.7,143.38 M56.24,88.4
		c9.15,0,16.64-2.04,22.45-6.11c5.81-4.07,8.71-9.83,8.71-17.26c0-7.09-2.46-12.31-7.39-15.67c-4.93-3.37-11.62-5.05-20.07-5.05
		H40.39V88.4H56.24z M94.04,140.72c0-7.96-3.35-13.98-10.05-18.06c-6.7-4.07-15.33-6.11-25.9-6.11h-17.7v48.34h19.55
		c11.63,0,20.22-2.21,25.77-6.64C91.26,153.83,94.04,147.99,94.04,140.72"/>
	<path class="st0" d="M191.78,155.59c0,4.08,0.84,7.13,2.52,9.17c1.68,2.04,4.56,3.05,8.63,3.05c1.6,0,3.27-0.09,5.04-0.27
		c1.77-0.17,3.45-0.44,5.05-0.79l1.33,25.49c-3.01,0.88-6.73,1.63-11.16,2.26c-4.43,0.62-8.77,0.93-13.01,0.93
		c-6.55,0-12.04-1.02-16.47-3.06c-4.43-2.03-8.01-4.78-10.75-8.23c-2.75-3.45-4.69-7.34-5.84-11.69c-1.15-4.34-1.72-8.8-1.72-13.41
		V5.53h36.38V155.59z"/>
	<path class="st0" d="M233.22,25.98c0-5.84,1.95-10.8,5.84-14.87C242.95,7.03,248,5,254.2,5c6.19,0,11.29,2.03,15.27,6.11
		c3.98,4.07,5.98,9.03,5.98,14.87c0,5.67-1.99,10.58-5.98,14.74c-3.98,4.17-9.08,6.24-15.27,6.24c-6.2,0-11.25-2.08-15.14-6.24
		C235.16,36.56,233.22,31.65,233.22,25.98 M236.14,63.7h36.39v129.35h-36.39V63.7z"/>
	<path class="st0" d="M307.06,63.7h34.79v16.47c4.25-5.84,9.56-10.49,15.93-13.94c6.38-3.45,14.16-5.18,23.37-5.18
		c7.79,0,14.88,1.6,21.25,4.78c6.37,3.19,11.82,7.66,16.34,13.41c4.52,5.76,8.01,12.66,10.49,20.72c2.47,8.06,3.72,17.05,3.72,26.96
		c0,11.16-1.77,21.03-5.32,29.62c-3.55,8.59-8.33,15.8-14.34,21.65c-6.02,5.84-13.06,10.22-21.12,13.15
		c-8.05,2.92-16.69,4.38-25.89,4.38c-4.78,0-9.03-0.31-12.75-0.93c-3.72-0.62-7.09-1.37-10.09-2.26v55.25h-36.39V63.7z
		 M368.94,89.46c-5.84,0-10.94,1.24-15.27,3.72c-4.34,2.48-7.75,5.22-10.23,8.23v64.01c2.3,0.89,4.95,1.55,7.97,1.99
		c3.01,0.45,6.2,0.66,9.56,0.66c12.39,0,21.42-3.81,27.09-11.42c5.67-7.61,8.5-17.44,8.5-29.48c0-10.8-2.26-19.79-6.77-26.96
		C385.27,93.05,378.32,89.46,368.94,89.46"/>
	<path class="st0" d="M586.74,143.38c0,7.79-1.77,14.74-5.31,20.85c-3.55,6.1-8.5,11.29-14.87,15.54
		c-6.37,4.25-14.08,7.53-23.11,9.83c-9.03,2.3-19.03,3.45-30.01,3.45h-53.39V16.15h60.56c9.03,0,17.21,1.02,24.57,3.05
		c7.34,2.04,13.58,4.87,18.72,8.5c5.13,3.64,9.12,8.01,11.96,13.15c2.83,5.14,4.24,10.8,4.24,17c0,11.16-3.23,20.18-9.7,27.09
		c-6.46,6.91-15.27,12.13-26.42,15.67c12.75,1.95,23.06,6.5,30.94,13.68C582.79,121.47,586.74,131.16,586.74,143.38 M512.28,88.4
		c9.15,0,16.64-2.04,22.45-6.11c5.81-4.07,8.71-9.83,8.71-17.26c0-7.09-2.46-12.31-7.39-15.67c-4.93-3.37-11.62-5.05-20.07-5.05
		h-19.54V88.4H512.28z M550.08,140.72c0-7.96-3.35-13.98-10.05-18.06c-6.7-4.07-15.33-6.11-25.9-6.11h-17.7v48.34h19.55
		c11.63,0,20.22-2.21,25.77-6.64C547.3,153.83,550.08,147.99,550.08,140.72"/>
	<path class="st0" d="M647.82,155.59c0,4.08,0.84,7.13,2.52,9.17c1.68,2.04,4.56,3.05,8.63,3.05c1.6,0,3.27-0.09,5.04-0.27
		c1.77-0.17,3.45-0.44,5.05-0.79l1.33,25.49c-3.01,0.88-6.73,1.63-11.16,2.26c-4.43,0.62-8.77,0.93-13.01,0.93
		c-6.55,0-12.04-1.02-16.47-3.06c-4.43-2.03-8.01-4.78-10.75-8.23c-2.75-3.45-4.7-7.34-5.84-11.69c-1.15-4.34-1.72-8.8-1.72-13.41
		V5.53h36.38V155.59z"/>
	<path class="st0" d="M763.36,179.24c-4.78,4.61-10.54,8.5-17.26,11.69c-6.73,3.19-14.52,4.78-23.37,4.78
		c-5.67,0-10.8-0.93-15.41-2.78c-4.61-1.86-8.5-4.42-11.68-7.7c-3.19-3.27-5.67-7.13-7.44-11.56c-1.77-4.42-2.65-9.29-2.65-14.61
		c0-11.86,3.98-20.89,11.95-27.09c7.97-6.19,18.86-9.73,32.67-10.62c5.31-0.35,10.8-0.62,16.47-0.8c5.67-0.17,10.8-0.35,15.41-0.53
		v-4.51c0-8.32-2.04-14.65-6.11-18.99c-4.08-4.34-10.45-6.5-19.13-6.5c-6.73,0-13.11,0.8-19.12,2.39
		c-6.02,1.59-11.34,3.63-15.94,6.11l-7.17-25.5c6.73-3.89,14.17-6.86,22.31-8.9c8.14-2.03,16.91-3.06,26.3-3.06
		c17.17,0,30.68,4.7,40.5,14.08c9.83,9.39,14.74,23.29,14.74,41.7v76.23h-35.06V179.24z M736.01,171c5.13,0,9.91-0.88,14.34-2.65
		c4.43-1.77,8.33-3.99,11.69-6.64v-20.45c-3.72,0.35-7.7,0.71-11.95,1.06c-4.25,0.36-8.15,0.8-11.68,1.33
		c-5.32,0.89-9.56,2.35-12.75,4.38c-3.19,2.04-4.78,5.45-4.78,10.23c0,4.25,1.37,7.44,4.12,9.56C727.72,169.94,731.4,171,736.01,171
		"/>
</g>
</svg>
