<svg height="512" viewBox="0 0 512 512" width="512" xmlns="http://www.w3.org/2000/svg"><g id="_44.Cards" data-name="44.Cards"><path d="m465.66 505.51h-207.34a27 27 0 0 1 -27-27v-132.71a6 6 0 0 1 6-6h6.68a15 15 0 0 0 15-15v-161.59a6 6 0 0 1 6-6h200.66a27 27 0 0 1 27 27v294.3a27 27 0 0 1 -27 27zm-222.33-153.71v126.71a15 15 0 0 0 15 15h207.33a15 15 0 0 0 15-15v-294.3a15 15 0 0 0 -15-15h-194.66v155.59a27 27 0 0 1 -27 27z"/><path d="m435.07 474.93h-146.15a27 27 0 0 1 -27-27v-233.15a27 27 0 0 1 27-27h146.15a27 27 0 0 1 27 27v233.15a27 27 0 0 1 -27 27zm-146.15-275.14a15 15 0 0 0 -15 15v233.14a15 15 0 0 0 15 15h146.15a15 15 0 0 0 15-15v-233.15a15 15 0 0 0 -15-15z"/><path d="m355.65 434.17h-38.23a22.2 22.2 0 0 1 -22.19-22.17v-161.29a22.21 22.21 0 0 1 22.19-22.17h14.33c18.42 0 31.65 1.19 40.45 3.64 12.74 3.37 23.11 9.8 30.77 19.08a51 51 0 0 1 11.67 33.3 49 49 0 0 1 -5.36 22.84 50.48 50.48 0 0 1 -9.93 13c8.74 5.21 15.55 11.46 20.24 18.6 6.09 9.25 9.17 20.26 9.17 32.71a60.89 60.89 0 0 1 -9.38 32.95 60.11 60.11 0 0 1 -24.2 22.25c-9.82 4.88-22.75 7.26-39.53 7.26zm-38.23-193.63a10.19 10.19 0 0 0 -10.19 10.17v161.29a10.19 10.19 0 0 0 10.19 10.16h38.23c14.67 0 26.17-2 34.18-6a49.78 49.78 0 0 0 26.93-44.46c0-10.07-2.42-18.86-7.19-26.12-3.9-5.92-9.82-11.17-17.59-15.59a10.78 10.78 0 0 1 -1.93-17.31 39.92 39.92 0 0 0 8.58-10.81 37.14 37.14 0 0 0 4-17.31c0-10-2.92-18.37-8.93-25.67s-14.17-12.36-24.65-15.13c-7.71-2.14-20.24-3.22-37.31-3.22zm30 158.49h-1.59a13.68 13.68 0 0 1 -13.67-13.66v-34.31a13.68 13.68 0 0 1 13.67-13.66c16.06 0 27.47 2.78 34.89 8.49 7.78 6 11.73 14.24 11.73 24.5 0 9.23-3.62 16.74-10.49 21.71-6.42 4.66-17.72 6.9-34.52 6.9zm-1.59-49.63a1.67 1.67 0 0 0 -1.67 1.66v34.31a1.67 1.67 0 0 0 1.67 1.66h1.59c18.34 0 25.11-2.92 27.51-4.65 3.77-2.73 5.52-6.54 5.52-12 0-6.52-2.24-11.28-7.06-15-5.06-3.91-14.6-5.98-27.54-5.98zm.41-32.91h-.41a13.67 13.67 0 0 1 -13.67-13.66v-25.48a13.68 13.68 0 0 1 13.67-13.66h1.86c9.91 0 17.6 2.28 22.85 6.77 5.52 4.73 8.32 11.11 8.32 19 0 8.29-2.9 15-8.64 19.95-5.45 4.69-13.52 7.08-23.96 7.08zm-.41-40.8a1.66 1.66 0 0 0 -1.67 1.66v25.48a1.66 1.66 0 0 0 1.67 1.66h.41c7.48 0 12.91-1.41 16.14-4.2 3.06-2.63 4.48-6.08 4.48-10.86 0-4.31-1.31-7.44-4.13-9.85-3-2.58-8.07-3.89-15-3.89z"/><path d="m244 351.8h-207.35a27 27 0 0 1 -27-27v-235.8a6 6 0 1 1 12 0v235.8a15 15 0 0 0 15 15h207.35a15 15 0 0 0 15-15v-294.3a15 15 0 0 0 -15-15h-207.35a15 15 0 0 0 -15 15v11.68a6 6 0 1 1 -12 0v-11.68a27 27 0 0 1 27-27h207.35a27 27 0 0 1 27 27v294.3a27 27 0 0 1 -27 27z"/><path d="m15.65 76.08a6 6 0 0 1 -6-6v-9a6 6 0 0 1 12 0v9a6 6 0 0 1 -6 6z"/><path d="m213.39 321.22h-146.14a27 27 0 0 1 -27-27v-233.15a27 27 0 0 1 27-27h146.14a27 27 0 0 1 27 27v233.15a27 27 0 0 1 -27 27zm-146.14-275.14a15 15 0 0 0 -15 15v233.14a15 15 0 0 0 15 15h146.14a15 15 0 0 0 15-15v-233.15a15 15 0 0 0 -15-15z"/><path d="m207.74 280.47a24 24 0 0 1 -22.33-15.38l-7.17-18.83a8.88 8.88 0 0 0 -8.26-5.68h-58.88a8.8 8.8 0 0 0 -8.22 5.57l-7.61 19.23a23.76 23.76 0 0 1 -22.22 15.09h-.15a23.86 23.86 0 0 1 -22.29-32.47l58.73-151.9a33.31 33.31 0 0 1 62.13 0l58.53 151.95a23.87 23.87 0 0 1 -22.3 32.42zm-96.64-51.89h58.9a21 21 0 0 1 19.45 13.42l7.17 18.84a12 12 0 0 0 11.12 7.65 11.75 11.75 0 0 0 9.82-5.17 11.62 11.62 0 0 0 1.28-10.93l-58.57-151.95a21.31 21.31 0 0 0 -39.74 0l-58.73 151.92a11.86 11.86 0 0 0 11.1 16.11h.15a11.82 11.82 0 0 0 11.06-7.47l7.62-19.23a20.7 20.7 0 0 1 19.37-13.19zm46.75-23.93h-34.56a11.94 11.94 0 0 1 -11.12-16.27l17.34-44.25a11.85 11.85 0 0 1 11.11-7.57 11.83 11.83 0 0 1 11.11 7.6l17.27 44.24a11.93 11.93 0 0 1 -11.13 16.25zm-34.46-12h34.36l-17.13-44z"/></g></svg>